<?xml version="1.0" standalone="no"?>
<!DOCTYPE svg PUBLIC "-//W3C//DTD SVG 20010904//EN"
 "http://www.w3.org/TR/2001/REC-SVG-20010904/DTD/svg10.dtd">
<svg version="1.0" xmlns="http://www.w3.org/2000/svg"
 width="512.000000pt" height="512.000000pt" viewBox="0 0 512.000000 512.000000"
 preserveAspectRatio="xMidYMid meet">

<g transform="translate(0.000000,512.000000) scale(0.100000,-0.100000)"
fill="#000000" stroke="none">
<path d="M2370 5113 c-379 -36 -661 -116 -980 -278 -378 -193 -717 -497 -965
-865 -42 -63 -114 -191 -160 -285 -168 -340 -248 -661 -262 -1040 -15 -426 73
-832 263 -1214 133 -269 271 -459 488 -677 221 -220 412 -357 681 -489 188
-92 309 -137 500 -185 500 -126 1002 -102 1490 71 149 53 407 182 540 271 299
199 573 480 769 788 72 113 188 353 235 486 235 662 194 1372 -115 1993 -124
250 -263 447 -458 648 -216 224 -428 378 -711 518 -296 146 -572 225 -900 255
-102 9 -333 11 -415 3z m-497 -1574 c12 -6 172 -160 355 -342 l332 -332 333
332 c231 231 344 337 371 348 81 34 188 13 242 -47 56 -61 72 -156 39 -234
-11 -27 -117 -140 -348 -371 l-332 -333 332 -332 c231 -232 337 -345 348 -372
33 -78 17 -173 -39 -234 -54 -60 -161 -81 -242 -47 -27 11 -140 117 -371 348
l-333 332 -332 -332 c-232 -231 -345 -337 -372 -348 -140 -59 -295 37 -298
183 -2 99 0 102 360 465 l336 337 -331 333 c-231 231 -337 344 -348 371 -43
102 -2 225 90 274 59 31 148 31 208 1z"/>
</g>
</svg>
