<?xml version="1.0" standalone="no"?>
<!DOCTYPE svg PUBLIC "-//W3C//DTD SVG 20010904//EN"
 "http://www.w3.org/TR/2001/REC-SVG-20010904/DTD/svg10.dtd">
<svg version="1.0" xmlns="http://www.w3.org/2000/svg"
 width="512.000000pt" height="512.000000pt" viewBox="0 0 512.000000 512.000000"
 preserveAspectRatio="xMidYMid meet">

<g transform="translate(0.000000,512.000000) scale(0.100000,-0.100000)"
fill="#000000" stroke="none">
<path d="M2404 4956 c-79 -18 -169 -55 -241 -97 -68 -41 -175 -145 -224 -220
-52 -77 -1858 -3402 -1887 -3472 -88 -217 -57 -487 79 -687 110 -160 257 -263
444 -310 79 -19 112 -20 1985 -20 1873 0 1906 1 1985 20 157 40 296 126 398
248 56 67 130 212 152 297 37 146 27 318 -27 452 -44 107 -1860 3435 -1916
3511 -91 122 -222 213 -377 262 -90 28 -281 36 -371 16z m282 -1240 c61 -28
115 -82 146 -145 l23 -46 0 -825 c0 -818 0 -825 -21 -871 -30 -63 -79 -116
-138 -147 -44 -23 -63 -27 -136 -27 -73 0 -92 4 -136 27 -59 31 -108 84 -138
147 -21 46 -21 53 -21 871 l0 825 23 46 c75 153 245 214 398 145z m0 -2400
c61 -28 115 -82 146 -145 31 -62 32 -176 2 -242 -29 -63 -79 -116 -138 -147
-44 -23 -63 -27 -136 -27 -73 0 -92 4 -136 27 -59 31 -109 84 -138 147 -30 66
-29 180 2 242 75 153 245 214 398 145z"/>
</g>
</svg>
