<?xml version="1.0" standalone="no"?>
<!DOCTYPE svg PUBLIC "-//W3C//DTD SVG 20010904//EN"
 "http://www.w3.org/TR/2001/REC-SVG-20010904/DTD/svg10.dtd">
<svg version="1.0" xmlns="http://www.w3.org/2000/svg"
 width="512.000000pt" height="512.000000pt" viewBox="0 0 512.000000 512.000000"
 preserveAspectRatio="xMidYMid meet">

<g transform="translate(0.000000,512.000000) scale(0.100000,-0.100000)"
fill="#000000" stroke="none">
<path d="M10 5086 c-25 -32 33 -497 90 -715 73 -279 171 -432 314 -491 55 -23
57 -25 51 -55 -40 -196 -65 -462 -65 -703 0 -862 310 -1511 905 -1894 82 -53
261 -144 360 -183 39 -15 73 -30 78 -34 9 -9 -50 -224 -93 -341 -66 -178 -181
-388 -296 -539 -66 -85 -42 -106 108 -91 373 37 640 158 879 399 127 128 199
229 280 391 28 58 52 106 53 106 1 1 72 9 160 18 87 9 215 28 285 41 69 14
129 25 132 25 16 0 -103 -493 -162 -674 -22 -66 -57 -153 -79 -194 -22 -40
-40 -80 -40 -87 0 -40 149 -56 278 -32 366 70 658 464 867 1171 24 83 50 174
57 202 12 45 23 59 101 128 306 272 689 830 803 1172 67 200 57 324 -33 424
-49 55 -94 82 -164 100 -38 10 -47 18 -68 60 -80 164 -235 277 -461 338 -88
24 -111 26 -315 26 -247 1 -350 -12 -559 -69 -155 -42 -277 -90 -441 -173
-119 -60 -215 -122 -534 -342 -217 -149 -426 -254 -601 -302 -116 -31 -326
-31 -443 1 -231 62 -384 213 -441 436 -40 159 -43 395 -6 480 21 49 35 61 133
113 321 171 497 481 546 961 11 101 6 121 -30 121 -11 0 -44 -24 -74 -54 -72
-73 -174 -123 -280 -137 -216 -28 -284 -57 -386 -161 l-65 -66 -28 63 c-32 73
-102 145 -170 176 -24 10 -79 26 -122 35 -161 33 -253 81 -346 183 -32 34 -72
87 -91 119 -35 60 -63 75 -87 48z m301 -360 c41 -20 115 -46 164 -57 50 -12
110 -28 134 -36 51 -18 115 -73 138 -117 23 -44 43 -124 43 -173 0 -24 6 -48
16 -57 28 -29 41 -19 81 60 40 82 85 136 148 179 57 40 157 75 211 75 97 0
255 54 342 116 l23 17 -7 -44 c-59 -412 -214 -671 -485 -815 -114 -60 -150
-90 -180 -152 -23 -44 -24 -57 -24 -242 0 -229 12 -292 82 -440 109 -228 328
-358 632 -376 305 -18 584 102 1121 482 337 239 699 383 1069 425 149 17 413
7 518 -20 163 -41 291 -125 371 -241 l45 -65 -109 -7 c-418 -27 -710 -110
-952 -271 -177 -118 -289 -249 -366 -427 -25 -55 -64 -134 -87 -173 -60 -101
-175 -211 -278 -267 -104 -56 -147 -92 -160 -133 -5 -18 -15 -93 -21 -167 -68
-831 -362 -1355 -885 -1578 -98 -42 -275 -88 -375 -98 l-74 -7 19 29 c169 255
269 473 334 727 49 189 65 307 66 482 0 160 0 160 -23 163 -44 6 -52 -12 -52
-122 0 -90 -15 -262 -25 -293 -4 -14 -65 7 -194 68 -310 145 -572 371 -755
651 -115 176 -219 431 -270 660 -54 242 -61 320 -61 653 1 324 8 414 56 658
12 59 19 113 16 121 -3 7 -32 18 -65 25 -105 21 -170 82 -240 229 -67 142
-116 358 -156 686 l-6 49 74 -71 c48 -45 99 -82 147 -106z m4467 -1711 c6
-289 -50 -578 -183 -937 -46 -125 -76 -169 -234 -347 -92 -103 -361 -332 -361
-306 0 3 30 64 66 137 215 429 342 907 383 1442 6 71 14 133 18 137 10 10 93
16 213 15 l95 -1 3 -140z m125 126 c40 -16 99 -73 118 -116 46 -101 4 -281
-127 -535 -50 -98 -163 -283 -164 -268 0 3 15 60 34 126 68 233 100 467 94
680 -3 130 -3 131 45 113z m-528 -88 c-50 -646 -194 -1144 -477 -1645 l-48
-86 -93 -45 c-146 -71 -436 -170 -420 -144 4 7 31 48 61 92 88 131 194 356
255 542 101 309 157 639 173 1032 l7 164 76 34 c100 46 203 80 326 108 155 36
147 39 140 -52z m-635 -378 c-35 -482 -125 -860 -281 -1181 -80 -165 -222
-379 -267 -403 -30 -16 -432 -76 -432 -64 0 1 21 26 47 55 183 206 307 541
345 933 l12 130 59 70 c71 85 109 148 170 283 71 159 146 253 292 366 l60 46
3 -42 c2 -24 -1 -110 -8 -193z m-670 -696 c-27 -224 -87 -444 -165 -601 -39
-79 -137 -232 -155 -243 -4 -3 1 28 11 68 49 184 82 394 104 669 6 69 10 80
33 99 29 22 175 107 180 103 1 -1 -2 -44 -8 -95z m1006 -626 c-3 -10 -21 -72
-41 -137 -196 -650 -458 -1019 -780 -1101 -64 -16 -175 -20 -175 -6 0 4 13 37
29 72 59 132 129 377 197 693 18 88 37 163 41 167 5 3 42 16 83 28 205 60 437
164 570 255 72 50 84 54 76 29z"/>
<path d="M2945 2789 c-16 -6 -46 -27 -66 -46 -91 -87 -69 -238 43 -292 164
-79 326 83 247 247 -39 79 -142 121 -224 91z m114 -83 c58 -30 69 -119 22
-167 -48 -47 -137 -36 -167 22 -24 48 -18 87 20 125 38 38 77 44 125 20z"/>
<path d="M4795 4623 c-46 -24 -76 -54 -96 -98 -51 -110 9 -233 129 -265 86
-22 175 20 216 102 28 57 31 83 16 140 -30 107 -171 171 -265 121z m147 -83
c56 -43 61 -125 10 -173 -77 -73 -192 -21 -192 87 0 30 7 45 34 72 29 29 41
34 79 34 29 0 53 -7 69 -20z"/>
<path d="M4816 3996 c-57 -21 -87 -47 -113 -96 -40 -75 -22 -171 43 -232 102
-95 278 -43 314 94 39 144 -107 284 -244 234z m135 -102 c76 -73 27 -194 -78
-194 -38 0 -50 5 -79 34 -105 105 50 263 157 160z"/>
</g>
</svg>
